<?xml version="1.0" encoding="utf-8"?>
<!-- Uploaded to: SVG Repo, www.svgrepo.com, Generator: SVG Repo Mixer Tools -->
<svg width="800px" height="800px" viewBox="-153.01 0 443.174 443.174" xmlns="http://www.w3.org/2000/svg"><defs><style>.a{fill:#ffffff;}.b{fill:#957f6e;}.c{fill:#bdbdbd;}.d{fill:#7a7473;}.e{fill:#211715;}.f{fill:none;}</style></defs><path class="a" d="M93.57,315.779C96,335.08,92,354.521,89.6,373.826c-1.3,10.477-1.745,22.16,2.828,31.253.08.275.12.423.12.423.364,1.357.978,4.969-.218,5.706s-3.168.709-4.573.734c-6.1.105-12.553-4.492-15.975-7.536a.459.459,0,0,0-.369-.1c-.591-23.987-.6-47.987-.6-71.983,0-5.262,0-11.658,0-16.92"/><path class="a" d="M46.059,315.779c-2.428,19.3,1.573,38.742,3.973,58.047,1.3,10.477,1.745,22.16-2.829,31.253-.08.275-.12.423-.12.423-.363,1.357-.978,4.969.219,5.706s3.168.709,4.573.734c6.1.105,12.553-3.642,15.974-6.686a.462.462,0,0,1,.369-.1c.592-23.987.6-48.837.6-72.833,0-5.262,0-11.658,0-16.92"/><path class="b" d="M35.248,100.837a11.193,11.193,0,0,1-7.52-10.25,66.521,66.521,0,0,1,1.78-13.35,70.566,70.566,0,0,0,1.7-10.92c.42-4.61.66-10.17.66-16.64-.59-17.75,4.08-30.62,11.44-37.66a39.927,39.927,0,0,1,25.66-10.03c6.85,0,10.48.72,14.39,2.22l6.95,3.1c2.64,1.43,3.35,2.53,5.78,4.87,5.61,5.42,9.51,15.17,10.14,23.89.18,2.52.3,8.41.19,13.61.2,16.11,2.96,25.13,4.39,29.57a31.511,31.511,0,0,1,1.73,10.09c.04,5.09-4.58,11-10.85,10.86Z"/><path class="a" d="M82.917,91.05c-.045-.3-.089-.61-.144-.924a39.111,39.111,0,0,1-.606-6.165C89.334,80.873,95.1,71.23,96.1,68.5c.152-.461.462-1.33.737-2.361l.575-.089a7.226,7.226,0,0,0,3.359-1.514,10.887,10.887,0,0,0,2.816-3.7,17.139,17.139,0,0,0,1.748-9.084,5.73,5.73,0,0,0-.6-2.3,4.043,4.043,0,0,0-2.908-1.933,4.281,4.281,0,0,0-3.428,1c-4.131-2.049-7.085-5.659-9.12-8.548a32.8,32.8,0,0,1-6.155-14.259c-3.675,4.5-11.86,9.539-19.148,11.9a33.61,33.61,0,0,1-6.146,1.046,67.7,67.7,0,0,1-7.746,5.272c-1.541.911-7.334,3.577-9.4,4.419a4.237,4.237,0,0,0-3.2-.834,4.045,4.045,0,0,0-2.909,1.933,5.713,5.713,0,0,0-.6,2.3,17.138,17.138,0,0,0,1.747,9.084,10.878,10.878,0,0,0,2.817,3.7A7.218,7.218,0,0,0,41.9,66.049l1.094.165a29.144,29.144,0,0,0,5.555,10.845,24.662,24.662,0,0,0,8.889,6.99,40.008,40.008,0,0,1-.61,6.078c-.081.483-.143.931-.212,1.391a43.584,43.584,0,0,0,10.745,7.041c.259.118.548.261.632.533h3.138c.084-.272.373-.415.632-.533a43.383,43.383,0,0,0,12.523-8.728"/><path class="c" d="M37.058,192.646c-1.391,4.88-3.111,12.983-4.234,19.344-5.3,30.013,2.294,92.325,2.823,102.182a.985.985,0,0,0,.9.934c15.684,1.452,52.619,1.507,65.7-.047a.99.99,0,0,0,.884-.933c.508-9.733,7.939-72.1,2.639-102.136-1.122-6.361-2.842-14.464-4.233-19.344Z"/><path class="c" d="M74.888,202.955c1.634,3.275,3.527,5.878,5.6,6.808,5.267,2.359,22.272,1.767,27.926.611-.5-4.563-1.814-13.919-3.005-22.973l-.044-.363c5.3-3.077,10.968-6.558,15.52-9.723,4.369-3.039,10.29-6.713,13.078-12.365s.127-10.5-2.436-17.831c-2.7-7.722-8.214-23.827-11.305-31.709-2.018-5.145-3.157-6.079-5.576-8.3a28.813,28.813,0,0,0-6.077-3.631c-4.7-2.333-14.7-6.842-19.44-9.36l-.793-.421a200.6,200.6,0,0,1-6.084,20.2c-5.277,14.8-9.113,24.879-13.348,35.046-1.455-4.084-2.653-8.216-3.938-12.341C63,130.273,53.21,97.867,51.988,93.867l-.311-1.016-2.693,1.276c-5.629,2.666-14.9,7.3-19.594,9.63-.862.428-4.235,2.439-5.033,2.846a12.229,12.229,0,0,0-1.911,1.069c-2.238,1.659-3.558,3.16-5.576,8.305-3.091,7.882-8.607,23.987-11.3,31.709C3,155.02.34,159.865,3.128,165.517s8.709,9.326,13.079,12.365c4.438,3.087,9.94,6.473,15.125,9.492l-.021.165c-1.188,9.028-2.492,18.33-2.99,22.861,4,.862,22.51,1.975,28.989-.332a15.753,15.753,0,0,0,6.221-3.938Z"/><path class="a" d="M79.553,200.5c.407-.229.813-.461,1.214-.694a76.784,76.784,0,0,0,7.026-4.842c.564-.407,1.116-.826,1.651-1.254-3.331-5.228-6.381-10.61-9.341-16.032-2.248.1-4.407-.09-6.925-.13-1.9-.02-5.15,1.5-6.79,2.48a5.7,5.7,0,0,0-2.98,4.21l.476,3.447c-1.929,1-3.645,1.93-4.524,2.458a28.464,28.464,0,0,0-4.424,3.254c-1.711,2.14-1.679,4.572-.984,5.474s1.917,2.032,3.342,1.684a3.494,3.494,0,0,0,1.166,3.289,3.825,3.825,0,0,0,4.292.279c-.554.748.718,2.983,2.62,2.7a17.865,17.865,0,0,0,3.985-1.145C71.048,204.953,75.365,202.86,79.553,200.5Z"/><path class="a" d="M60.047,178.233c-.97-.129-1.952-.241-2.838-.382-2.872,5.267-5.823,10.5-9.03,15.593,1.21.851,2.447,1.646,3.609,2.543l1.721,1.032a6.256,6.256,0,0,1,1.427-3.623,28.464,28.464,0,0,1,4.424-3.254c.879-.528,2.595-1.455,4.524-2.458l-.476-3.447a5.292,5.292,0,0,1,2.169-3.652C65.257,179.063,62.693,178.585,60.047,178.233Z"/><path class="d" d="M28.513,436.936q-.165-.216-.312-.446a8.358,8.358,0,0,1-.554-7.006,22.942,22.942,0,0,1,3.6-6.273q5.2-7.107,11-13.756c1.506-1.727,3.209-3.528,5.461-3.953-.363,1.357-.909,4.71.288,5.447s3.021.734,4.426.759c6.152.107,12.726-4.3,16.14-7.381.233-.21.667.084.67.418.031,3.963.364,5.676.344,10.055a10.106,10.106,0,0,1-.762,3.39c-.976,2.639-3.869,3.91-6.191,5.5-6.041,4.134-9.222,11.676-15.552,15.351a16.344,16.344,0,0,1-15.108.542A9.545,9.545,0,0,1,28.513,436.936Z"/><path class="d" d="M111.737,436.936q.165-.216.312-.446a8.362,8.362,0,0,0,.553-7.006,22.939,22.939,0,0,0-3.595-6.273q-5.2-7.107-11-13.756c-1.506-1.727-3.209-3.528-5.461-3.953.364,1.357.978,4.969-.218,5.706s-3.168.709-4.573.734c-6.1.105-12.553-4.492-15.975-7.536-.265-.236-.755-.058-.759.246-.046,3.986-.517,5.4-.5,9.815a12.272,12.272,0,0,0,.916,3.723c.976,2.639,3.869,3.91,6.191,5.5,6.041,4.134,9.223,11.676,15.553,15.351a16.342,16.342,0,0,0,15.107.542A9.548,9.548,0,0,0,111.737,436.936Z"/><path class="a" d="M52.834,92.017c-.35.448-.681.909-.991,1.378l.145.472C53.21,97.867,63,130.273,64.97,136.6c1.246,4,2.411,8.007,3.807,11.97.483-.75.806-1.254.806-1.254,3.973-9.63,7.677-19.408,12.673-33.421,2.789-7.821,4.942-15.425,5.844-19.17a20.57,20.57,0,0,0-3.814-4.89,43.383,43.383,0,0,1-12.523,8.728c-.259.118-.548.261-.632.533a1.01,1.01,0,0,0,.145.708H67.848a1.01,1.01,0,0,0,.145-.708c-.084-.272-.373-.415-.632-.533a43.383,43.383,0,0,1-12.523-8.728A18.182,18.182,0,0,0,52.834,92.017Z"/><path class="e" d="M44.172,315.779c-1.526,12.409-.457,24.91,1.146,37.254,1.5,11.546,3.962,23.233,3.7,34.923-.134,5.845-1.074,11.781-3.878,16.979-1.222,2.266,2.231,4.288,3.454,2.019,5.258-9.75,4.938-21.41,3.681-32.1-1.483-12.607-3.781-25.119-4.571-37.8a115.428,115.428,0,0,1,.473-21.274,2.01,2.01,0,0,0-2-2,2.05,2.05,0,0,0-2,2Z"/><path class="e" d="M67.725,316.532c0,22.911.061,45.825-.247,68.734q-.13,9.739-.368,19.476c-.064,2.575,3.936,2.574,4,0,.57-22.971.605-45.95.611-68.926q0-9.642,0-19.284c0-2.573-4-2.578-4,0Z"/><path class="e" d="M91.57,315.779c1.557,12.654.414,25.4-1.241,37.98-.827,6.291-1.777,12.566-2.58,18.86a97.337,97.337,0,0,0-.969,16.806,40.634,40.634,0,0,0,4.364,17.512c1.22,2.267,4.675.25,3.454-2.019-5.051-9.382-4.264-20.875-3-31.092,1.525-12.333,3.706-24.6,4.461-37.015a114.92,114.92,0,0,0-.488-21.032,2.063,2.063,0,0,0-2-2,2.011,2.011,0,0,0-2,2Z"/><path class="e" d="M31.034,210.684a164.748,164.748,0,0,0-2.078,28.791c-.018,10.887.48,21.772,1.19,32.633.613,9.39,1.408,18.766,2.273,28.136.3,3.2.6,6.393.887,9.591.1,1.079.191,2.159.269,3.239.027.366.037.734.072,1.1a3.148,3.148,0,0,0,3.111,2.954c9.744,1.011,19.663,1.008,29.448,1.07,10.253.065,20.543.011,30.777-.673,1.756-.117,3.515-.247,5.262-.464a3.1,3.1,0,0,0,2.884-2.933c.038-.395.048-.795.077-1.191.181-2.5.421-5,.648-7.5.778-8.543,1.538-17.088,2.161-25.644.783-10.773,1.385-21.564,1.585-32.365a222,222,0,0,0-1.061-30.127q-.4-3.375-1-6.718a2.018,2.018,0,0,0-2.461-1.4,2.044,2.044,0,0,0-1.4,2.46c1.638,9.126,1.951,18.55,1.981,27.854.034,10.563-.415,21.125-1.067,31.666-.572,9.235-1.32,18.457-2.145,27.672-.294,3.29-.6,6.58-.893,9.87-.1,1.148-.2,2.3-.293,3.443q-.048.6-.089,1.195a1.741,1.741,0,0,0-.034.544c.1.25-.59.765.457-.32.69-.715.459-.481-.085-.422A270.932,270.932,0,0,1,74.17,314.2c-10.345.06-20.709-.058-31.041-.626q-1.44-.078-2.879-.175a25.2,25.2,0,0,0-3.058-.234,2,2,0,0,0-.434-.038c2.449-1.295.714,1.637.875.8a2.427,2.427,0,0,0-.036-.549c-.03-.442-.065-.884-.1-1.326-.217-2.684-.477-5.363-.727-8.044-.792-8.5-1.554-16.993-2.179-25.5-.768-10.465-1.359-20.948-1.563-31.44a220.4,220.4,0,0,1,1-29.509c.224-1.948.514-3.848.866-5.809a2.057,2.057,0,0,0-1.4-2.46,2.016,2.016,0,0,0-2.46,1.4Z"/><path class="e" d="M30.24,435.927c-1.631-2.23-1.232-5.047-.048-7.4a52.085,52.085,0,0,1,5.49-7.931q3.032-3.954,6.267-7.746c1.712-2.014,3.553-4.809,6.287-5.423l-2.46-2.461c-.52,2.026-1.029,4.858.2,6.726,1.58,2.392,5.881,2.2,8.37,1.9,5.866-.7,11.281-3.988,15.623-7.86l-.883.514.2-.07H68.229l.219.076-.883-.515.176.177-.515-.882a11.681,11.681,0,0,1,.084,2.59c.042.882.1,1.764.146,2.646.106,1.993.392,4.2-.159,6.137a6.715,6.715,0,0,1-3.267,4,40,40,0,0,0-4.695,3.313c-5.59,4.87-9.015,12.973-16.7,14.98-4.211,1.1-9.812.374-12.7-3.188a2.013,2.013,0,0,0-2.828,0,2.046,2.046,0,0,0,0,2.828c2.178,2.683,5.788,4.12,9.133,4.6a18.708,18.708,0,0,0,10.592-1.535c5.881-2.721,9.185-8.573,13.5-13.088a21.378,21.378,0,0,1,3.453-3.012c1.239-.836,2.544-1.563,3.734-2.471,3.06-2.334,4.107-5.654,4.057-9.413-.019-1.492-.1-2.98-.185-4.469-.087-1.532.152-3.4-.261-4.869a2.52,2.52,0,0,0-1.718-1.729,2.663,2.663,0,0,0-2.588.839,34.391,34.391,0,0,1-3.283,2.492c-3.042,2.015-6.623,3.851-10.342,4a18.59,18.59,0,0,1-2.67-.062,9.358,9.358,0,0,1-1.1-.218c-.777-.179.005-.207-.066.145.1-.512-.1-1.28-.039-1.86a11.842,11.842,0,0,1,.32-1.669,2.023,2.023,0,0,0-2.46-2.461c-3.455.778-5.719,3.713-7.9,6.271q-3.8,4.455-7.336,9.116c-3.858,5.058-9.873,12.535-5.153,18.985a2.059,2.059,0,0,0,2.736.718A2.015,2.015,0,0,0,30.24,435.927Z"/><path class="e" d="M113.464,437.945c4.721-6.451-1.3-13.927-5.153-18.985q-3.549-4.653-7.336-9.116c-2.179-2.558-4.443-5.493-7.9-6.271a2.023,2.023,0,0,0-2.46,2.461,10.132,10.132,0,0,1,.406,3.3,2.313,2.313,0,0,1-.08.511c-.143-.064.851-.388.083-.218a11.7,11.7,0,0,1-2.225.3,17.719,17.719,0,0,1-9.378-2.487,35.348,35.348,0,0,1-4.132-2.709c-1.061-.8-2.314-2.415-3.742-2.425-2.405-.016-2.493,2.176-2.574,3.971-.065,1.417-.215,2.827-.319,4.242-.243,3.335-.278,7,1.692,9.9,1.823,2.676,4.906,3.794,7.322,5.79,4.955,4.1,7.962,10.053,13.277,13.78a18.065,18.065,0,0,0,11.336,3.158c3.912-.239,8.318-1.65,10.868-4.791a2.059,2.059,0,0,0,0-2.828,2.015,2.015,0,0,0-2.829,0c-2.55,3.141-7.351,4.09-11.192,3.508-4-.607-7.119-2.91-9.79-5.828-2.61-2.85-4.811-6.066-7.618-8.736a29.422,29.422,0,0,0-4.739-3.567c-1.342-.84-2.928-1.734-3.615-3.241-1-2.191-.893-4.467-.735-6.81.06-.9.149-1.8.22-2.7.041-.5.077-1.006.1-1.509a6.378,6.378,0,0,1,.075-1.654l-.92,1.195.2-.125-1.009.273.247-.025-1.009-.273a7.235,7.235,0,0,1,1.244.993q.871.705,1.775,1.373a36.108,36.108,0,0,0,3.673,2.4,23.13,23.13,0,0,0,8.992,3.081c2.4.243,6.606.412,8.1-1.911,1.253-1.944.686-4.9.148-6.993l-2.46,2.461c2.669.6,4.457,3.275,6.133,5.242q3.306,3.884,6.421,7.927a54.253,54.253,0,0,1,5.392,7.742c1.242,2.4,1.735,5.282.05,7.585a2.014,2.014,0,0,0,.717,2.736A2.046,2.046,0,0,0,113.464,437.945Z"/><path class="f" d="M36.837,192.646h64.079"/><path class="e" d="M58.6,91.7a61.642,61.642,0,0,0,.842-7.651,2,2,0,0,0-4,0,39.5,39.5,0,0,1-.335,4.291l.071-.532c-.127.946-.3,1.885-.435,2.829a2.2,2.2,0,0,0,.2,1.541,2,2,0,0,0,2.736.718,1.924,1.924,0,0,0,.919-1.2Z"/><path class="e" d="M80.168,84.011a58.3,58.3,0,0,0,.821,7.57,1.993,1.993,0,0,0,.919,1.195,2,2,0,0,0,2.736-.717,2.327,2.327,0,0,0,.2-1.541c-.134-.895-.3-1.785-.416-2.681l.071.531a38.737,38.737,0,0,1-.333-4.357,2,2,0,0,0-4,0Z"/><path class="e" d="M89.5,93.156a23.246,23.246,0,0,0-3.8-4.739,2.035,2.035,0,0,0-2.828,0,40.687,40.687,0,0,1-6.709,5.439c-1.183.766-2.4,1.478-3.653,2.124-1.225.633-2.894,1.079-3.307,2.581a3.511,3.511,0,0,0,.9,3.044c.819,1.088,1.683,2.142,2.545,3.195,1.647,2.011,3.321,4,4.961,6.015a2.019,2.019,0,0,0,2.829,0,54.683,54.683,0,0,0,7.635-10.28c1.345-2.2-2.113-4.215-3.454-2.019a50.115,50.115,0,0,1-7.01,9.47h2.829c-1.369-1.682-2.763-3.344-4.143-5.018-.776-.943-1.553-1.886-2.313-2.842-.212-.266-.415-.519-.615-.792a4.66,4.66,0,0,0-.271-.384c-.186-.2.066-.265.034.142l-.273,1.01q-.539.441-.086.184l.292-.134c.294-.138.587-.277.878-.421q.891-.442,1.761-.927,1.792-1,3.484-2.165A45.646,45.646,0,0,0,85.7,91.246H82.872a19.06,19.06,0,0,1,3.172,3.929c1.353,2.184,4.815.177,3.454-2.019Z"/><path class="e" d="M53.589,94.375a18.332,18.332,0,0,1,2.663-3.129H53.423a45.777,45.777,0,0,0,6.514,5.393Q61.628,97.8,63.421,98.8q.8.444,1.614.854.436.217.879.426c.145.068.291.136.437.2q.453.258-.085-.184l-.273-1.01c-.029-.366.233-.362.034-.142a3.538,3.538,0,0,0-.218.311c-.217.3-.435.573-.668.865-.761.956-1.537,1.9-2.313,2.842-1.38,1.674-2.774,3.336-4.143,5.018h2.829a40.086,40.086,0,0,1-4.918-6.152,2.046,2.046,0,0,0-2.736-.717,2.019,2.019,0,0,0-.718,2.736,45.6,45.6,0,0,0,5.543,6.962,2.014,2.014,0,0,0,2.829,0c1.607-1.975,3.246-3.923,4.86-5.892.873-1.065,1.744-2.133,2.578-3.228a3.593,3.593,0,0,0,.969-3.134c-.4-1.46-1.967-1.9-3.16-2.506q-1.88-.96-3.655-2.106a40.7,40.7,0,0,1-6.854-5.532,2.038,2.038,0,0,0-2.829,0,23.056,23.056,0,0,0-3.288,3.939,2,2,0,1,0,3.454,2.019Z"/><path class="e" d="M88.123,95.841c4.056,2.144,8.242,4.048,12.393,6,1.967.925,3.937,1.846,5.893,2.8a33.3,33.3,0,0,1,6.827,3.884c1.97,1.627,4.816-1.188,2.828-2.829-3.837-3.167-8.73-5.048-13.2-7.151-4.26-2-8.557-3.951-12.719-6.152-2.274-1.2-4.3,2.249-2.019,3.454Z"/><path class="e" d="M66.553,159.824a5.267,5.267,0,0,0-.721-2.709,4.773,4.773,0,0,0-2.636-2.024,5.625,5.625,0,0,0-3.453.024,4.813,4.813,0,0,0-2.621,2.093,5.464,5.464,0,0,0-.021,5.405,5.321,5.321,0,0,0,5.989,2.18,5.052,5.052,0,0,0,3.463-4.969,2,2,0,0,0-4,0,4.256,4.256,0,0,1-.039.552l.071-.532a3.96,3.96,0,0,1-.254.932l.2-.477a3.272,3.272,0,0,1-.379.656l.313-.405a2.9,2.9,0,0,1-.461.465l.4-.313a2.871,2.871,0,0,1-.542.32l.478-.2a3.253,3.253,0,0,1-.756.21l.532-.071a4.425,4.425,0,0,1-1.1,0l.532.072a3.724,3.724,0,0,1-.875-.229l.478.2a3.118,3.118,0,0,1-.625-.357l.4.313a2.959,2.959,0,0,1-.514-.511l.313.405a3.105,3.105,0,0,1-.373-.643l.2.477a3.252,3.252,0,0,1-.211-.78l.071.531a3.962,3.962,0,0,1,.013-.961l-.071.532a3.817,3.817,0,0,1,.259-.955l-.2.478a3.1,3.1,0,0,1,.345-.592l-.313.405a2.853,2.853,0,0,1,.488-.488l-.405.312a3.061,3.061,0,0,1,.567-.33l-.477.2a3.67,3.67,0,0,1,.868-.236l-.532.072a4.283,4.283,0,0,1,1.037,0l-.531-.071a3.7,3.7,0,0,1,.885.226l-.478-.2a2.949,2.949,0,0,1,.626.36l-.405-.312a2.761,2.761,0,0,1,.427.424l-.313-.405a2.869,2.869,0,0,1,.361.614l-.2-.478a3.436,3.436,0,0,1,.219.809l-.071-.531a4.246,4.246,0,0,1,.035.516,2,2,0,0,0,4,0Z"/><path class="e" d="M86.458,92.935a164.582,164.582,0,0,1-6.13,20.425c-2.707,7.613-5.48,15.2-8.4,22.738q-2.081,5.362-4.272,10.682a2.011,2.011,0,0,0,1.4,2.46,2.051,2.051,0,0,0,2.461-1.4q3.992-9.685,7.621-19.513c3.04-8.178,6.085-16.372,8.594-24.731.951-3.17,1.894-6.363,2.588-9.6.538-2.51-3.317-3.583-3.857-1.063Z"/><path class="e" d="M73.161,203.965c1.432,2.825,3.332,6.109,6.321,7.525a20,20,0,0,0,6.248,1.464,87.056,87.056,0,0,0,15.957.194,55.881,55.881,0,0,0,7.263-.845,2,2,0,0,0,1.468-1.929c-.853-7.674-2-15.318-3.005-22.973a2.066,2.066,0,0,0-2-2,2.012,2.012,0,0,0-2,2c1.008,7.655,2.152,15.3,3.005,22.973l1.468-1.928a52.127,52.127,0,0,1-7.239.766c-3.231.18-6.474.231-9.71.117a39.091,39.091,0,0,1-8.089-.893,4.757,4.757,0,0,1-2.71-1.3,17.356,17.356,0,0,1-3.524-5.187c-1.164-2.3-4.616-.274-3.453,2.019Z"/><path class="e" d="M47.975,92.4c-4.728,2.242-9.415,4.573-14.1,6.9-1.919.953-3.866,1.864-5.758,2.869-1.614.857-3.149,1.86-4.768,2.707-2.282,1.193-.262,4.646,2.019,3.454,1.619-.847,3.153-1.852,4.768-2.708,1.893-1,3.839-1.915,5.757-2.868,4.687-2.327,9.374-4.658,14.1-6.9,2.324-1.1.3-4.553-2.019-3.454Z"/><path class="e" d="M50.059,94.4c2.506,8.206,4.976,16.423,7.467,24.634q2.133,7.035,4.277,14.066c1.819,5.951,3.528,11.956,5.7,17.792a39.915,39.915,0,0,1,2.746,13.826,101.637,101.637,0,0,1-1.062,12.761,2.012,2.012,0,0,0,2,2,2.048,2.048,0,0,0,2-2c.961-7.989,1.791-15.9-.5-23.761-1.3-4.473-3.07-8.819-4.44-13.278q-1.065-3.468-2.134-6.935-4.455-14.532-8.835-29.088-1.677-5.541-3.359-11.08c-.75-2.455-4.612-1.408-3.857,1.063Z"/><path class="e" d="M50.036,91.574A37.384,37.384,0,0,0,42.7,96.606a35.789,35.789,0,0,0-5.824,5.994,2.025,2.025,0,0,0,.313,2.424q1.843,2.137,3.658,4.3.73.872,1.453,1.75.314.381.621.766c.3.372-.137-.2.163.213l.717-2.737a16.784,16.784,0,0,0-3.19,2.436c-1.446,1.568-.865,3.346.141,4.988.986,1.609,1.971,3.216,2.938,4.837,3.438,5.76,6.853,11.534,10.349,17.259,1.627,2.664,3.251,5.336,5,7.923,1.434,2.121,4.9.122,3.454-2.019-6.222-9.207-11.567-19.01-17.339-28.5-.177-.29-.353-.58-.533-.867-.2-.319-.722-1.583-.942-1.633.39.088-.779,1.263.078.528.234-.2.463-.391.71-.575.439-.326.9-.624,1.354-.924a2.02,2.02,0,0,0,.718-2.736c-1.991-2.74-4.312-5.276-6.52-7.839l.312,2.424a31.949,31.949,0,0,1,5.2-5.185,33.125,33.125,0,0,1,6.524-4.407c2.308-1.139.284-4.59-2.019-3.453Z"/><path class="e" d="M86.913,95.027a33.066,33.066,0,0,1,6.524,4.407,31.869,31.869,0,0,1,5.2,5.185l.313-2.424c-2.209,2.563-4.53,5.1-6.52,7.839a2.028,2.028,0,0,0,.718,2.736c.355.234,2.384,1.712,2.336,1.75-.255.2.091-.967-.257-.618a8.118,8.118,0,0,0-.733,1.241c-.139.222-.278.443-.415.666-1.077,1.75-2.12,3.521-3.172,5.286-3.274,5.5-6.538,11-9.88,16.453-1.481,2.418-2.963,4.842-4.552,7.192-1.445,2.138,2.019,4.142,3.454,2.019,6.417-9.5,11.794-19.659,17.873-29.366.943-1.507,2.144-3.361.993-5.09a12.225,12.225,0,0,0-3.629-2.987l.718,2.737c.3-.413-.136.159.162-.213q.309-.384.621-.766.721-.879,1.453-1.75,1.814-2.163,3.658-4.3a2.041,2.041,0,0,0,.313-2.424,35.744,35.744,0,0,0-5.823-5.994,37.361,37.361,0,0,0-7.334-5.032c-2.3-1.136-4.329,2.313-2.019,3.453Z"/><path class="e" d="M109.534,105.979c-1.082,13.214-3.393,26.364-5.379,39.463q-1.062,7-2.117,14a2.065,2.065,0,0,0,1.4,2.46,2.015,2.015,0,0,0,2.46-1.4c2.288-15.245,4.771-30.472,6.692-45.77.365-2.911.708-5.828.947-8.752.21-2.566-3.791-2.552-4,0Z"/><path class="e" d="M29.311,187.539c-1,7.618-2.143,15.224-2.99,22.861a2,2,0,0,0,1.468,1.929,71.586,71.586,0,0,0,12.518,1.058c5.174.145,10.553.2,15.642-.875a18.014,18.014,0,0,0,9-4.968c1.815-1.83-1.012-4.659-2.828-2.828-4.685,4.724-11.461,4.7-17.676,4.723q-4.743.02-9.482-.306a45.761,45.761,0,0,1-6.106-.661l1.468,1.928c.847-7.637,1.986-15.243,2.99-22.861a2.011,2.011,0,0,0-2-2,2.051,2.051,0,0,0-2,2Z"/><path class="e" d="M23.3,106.571c1.11,13.57,3.482,27.075,5.522,40.527q1.088,7.167,2.167,14.335a2.013,2.013,0,0,0,2.46,1.4,2.052,2.052,0,0,0,1.4-2.46c-2.252-15.034-4.723-30.047-6.612-45.132-.361-2.883-.7-5.771-.934-8.667-.209-2.548-4.211-2.57-4,0Z"/><path class="e" d="M56.676,179.775c.791.125,1.585.226,2.379.328l.539.07c.1.012.617.08.274.035s.015,0,.093.014l.237.034q.265.039.529.081a17.311,17.311,0,0,1,1.858.388c.272.075.536.166.8.262s-.222-.1-.224-.095c.018-.009.14.066.161.076a3.986,3.986,0,0,1,.366.206,2,2,0,1,0,2.019-3.454,10.318,10.318,0,0,0-3.8-1.221c-.827-.137-1.66-.243-2.492-.35l-1.01-.13c-.256-.034.481.066.124.016L58.3,176q-.28-.04-.559-.085a2.181,2.181,0,0,0-1.542.2,2,2,0,0,0,.478,3.655Z"/><path class="e" d="M62.1,184.213q-1.226-.472-2.479-.869a1.512,1.512,0,0,0-.8-.036,1.489,1.489,0,0,0-.744.237,2.245,2.245,0,0,0-.919,1.2,2.022,2.022,0,0,0,.2,1.541,2.157,2.157,0,0,0,1.2.919q1.253.395,2.478.869a1.526,1.526,0,0,0,.8.036,1.8,1.8,0,0,0,1.3-.753,1.515,1.515,0,0,0,.358-.68,2.027,2.027,0,0,0-.2-1.541l-.313-.405a1.99,1.99,0,0,0-.882-.514Z"/><path class="e" d="M52.8,194.26c-1.2-.921-2.466-1.737-3.7-2.606a2,2,0,0,0-2.938,2.259l.2.477a2.008,2.008,0,0,0,.718.718c1.233.869,2.5,1.685,3.7,2.606a1.492,1.492,0,0,0,.744.237,1.511,1.511,0,0,0,.8-.035,2.046,2.046,0,0,0,1.2-.919,2.02,2.02,0,0,0,.2-1.542l-.2-.477a2.008,2.008,0,0,0-.718-.718Z"/><path class="e" d="M65.408,184.237c.254-2.168,3.524-3.441,5.38-4.115a15.08,15.08,0,0,1,1.872-.537c.231-.051-.2,0,.158-.025.12-.008.24-.012.36-.013.479-.006.962.021,1.441.037,1.83.062,3.658.164,5.489.093a2,2,0,0,0,0-4c-2.095.081-4.187-.064-6.281-.117a12.139,12.139,0,0,0-5.014,1.062,18.913,18.913,0,0,0-4.394,2.35,7.529,7.529,0,0,0-3.011,5.265,2.012,2.012,0,0,0,2,2,2.048,2.048,0,0,0,2-2Z"/><path class="e" d="M70.12,182.376a90.084,90.084,0,0,0-13.476,7.151c-2.6,1.779-4.769,3.718-5.1,7.07a5.466,5.466,0,0,0,6.284,5.885l-2.461-2.46c-.605,1.932.481,4.227,1.943,5.455a5.831,5.831,0,0,0,6.453.372l-2.736-2.737c-1.452,2.648,1.334,5.741,4.036,5.735,2.779-.006,5.585-1.521,8.03-2.708a96.6,96.6,0,0,0,16.975-10.4,2.067,2.067,0,0,0,.718-2.736,2.014,2.014,0,0,0-2.737-.718,90.033,90.033,0,0,1-13.545,8.67c-1.906.991-3.828,2-5.806,2.841a9.042,9.042,0,0,1-3.471,1.031,1.66,1.66,0,0,1-.4-.092c-.586-.148.248-.692-.347.393a2.016,2.016,0,0,0-2.737-2.736,1.87,1.87,0,0,1-1.867.033,1.931,1.931,0,0,1-.631-1.031,2.168,2.168,0,0,1-.013-.428c.008.1-.087.367-.009.116a2.025,2.025,0,0,0-2.46-2.46c-.636.1-1.213-.931-1.25-1.247a3.826,3.826,0,0,1,1.079-2.825,18.316,18.316,0,0,1,4.081-2.863,128.426,128.426,0,0,1,11.467-5.86,2.015,2.015,0,0,0,.717-2.736,2.048,2.048,0,0,0-2.736-.718Z"/><path class="e" d="M71.086,188.173c-1.75.987-3.451,2.063-5.184,3.079-1.158.679-2.32,1.349-3.5,1.993-.5.275-1.008.546-1.519.805-.218.11-.438.219-.659.324-.113.053-.226.1-.339.156-.443.207.387-.157.1-.039a2.053,2.053,0,0,0-1.4,2.46,2.018,2.018,0,0,0,2.46,1.4c4.258-1.747,8.061-4.468,12.055-6.721a2,2,0,0,0-2.019-3.454Z"/><path class="e" d="M74.613,192.607a43.6,43.6,0,0,1-4.695,2.862c-1.119.641-2.246,1.269-3.386,1.871-.513.269-1.028.534-1.548.788-.228.111-.456.219-.687.325-.105.048-.211.092-.315.141-.32.149.518-.212.065-.027a2.052,2.052,0,0,0-1.4,2.46,2.02,2.02,0,0,0,2.46,1.4,56.777,56.777,0,0,0,6.707-3.432,44.5,44.5,0,0,0,4.815-2.931,2.054,2.054,0,0,0,.717-2.737,2.019,2.019,0,0,0-2.736-.717Z"/><path class="e" d="M22.17,156.875c4.194,2.21,8.159,4.961,12.168,7.48,5.733,3.6,11.451,7.231,17.188,10.83,1.753,1.1,3.494,2.229,5.286,3.265l-.717-2.736c-3.5,6.441-7.1,12.829-11.089,18.981l2.736-.718c-6.051-2.816-11.869-6.23-17.606-9.628-3.679-2.178-7.322-4.423-10.877-6.8a87.518,87.518,0,0,1-9.336-6.771c-2.865-2.524-5.855-5.884-5.976-9.911-.128-4.269,2.079-8.489,3.466-12.421,2.47-7,4.862-14.034,7.359-21.029,1.3-3.649,2.606-7.3,4.027-10.907a19.847,19.847,0,0,1,2.806-5.377,12,12,0,0,1,3.762-2.8c2.231-1.283.219-4.74-2.019-3.454a17.411,17.411,0,0,0-4.012,2.819,15.7,15.7,0,0,0-2.863,4.2,109.065,109.065,0,0,0-4.252,10.828C9.5,130.233,6.9,137.791,4.269,145.34,2.854,149.4.905,153.487.205,157.754c-.762,4.642.64,8.692,3.52,12.342,2.689,3.407,6.3,5.952,9.84,8.389,3.466,2.382,6.96,4.7,10.544,6.9a216.574,216.574,0,0,0,21.614,12.043,2.06,2.06,0,0,0,2.736-.717c3.992-6.152,7.592-12.54,11.09-18.981A2.037,2.037,0,0,0,58.831,175c-4.17-2.41-8.2-5.093-12.27-7.663-5.712-3.6-11.417-7.221-17.159-10.778-1.718-1.064-3.423-2.191-5.213-3.133-2.275-1.2-4.3,2.252-2.019,3.453Z"/><path class="e" d="M112.907,152.855c-4.194,2.209-8.159,4.96-12.168,7.48-5.733,3.6-11.452,7.231-17.188,10.829-1.753,1.1-3.494,2.23-5.287,3.265a2.038,2.038,0,0,0-.717,2.737c3.5,6.441,7.1,12.829,11.089,18.981a2.063,2.063,0,0,0,2.737.717,206.14,206.14,0,0,0,18.274-10.025c3.708-2.208,7.379-4.483,10.952-6.905a86.118,86.118,0,0,0,9.82-7.27c3.232-2.94,6.086-6.725,6.631-11.171.54-4.4-1.308-8.658-2.792-12.691-2.683-7.289-5.11-14.675-7.712-21.993-1.364-3.834-2.735-7.669-4.209-11.462a28.244,28.244,0,0,0-2.878-5.991,22.637,22.637,0,0,0-3.4-3.666c-1.892-1.739-4.728,1.082-2.828,2.829a21.928,21.928,0,0,1,2.625,2.654,20.481,20.481,0,0,1,2.436,4.769c1.225,3.107,2.357,6.252,3.486,9.4,2.522,7.024,4.952,14.082,7.407,21.13,1.353,3.885,3.307,7.84,3.871,11.945.544,3.959-1.455,7.359-4.124,10.12a59.078,59.078,0,0,1-9.2,7.153c-3.346,2.315-6.788,4.489-10.269,6.595A212.805,212.805,0,0,1,89.354,193.41l2.736.718C88.1,187.977,84.5,181.588,81,175.147l-.718,2.736c4.17-2.41,8.2-5.093,12.27-7.663,5.713-3.6,11.417-7.221,17.16-10.778,1.717-1.064,3.423-2.191,5.212-3.133,2.279-1.2.259-4.655-2.018-3.454Z"/><path class="e" d="M95.371,62.86a16.047,16.047,0,0,1-.938,4.335c-.062.191-.491,1.317-.223.708q-.2.457-.426.905a36.7,36.7,0,0,1-3.166,5.09c-2.743,3.762-6.471,7.751-11.168,8.854-2.505.587-1.445,4.445,1.063,3.857,5.671-1.331,10.068-5.964,13.4-10.481,2.878-3.9,5.254-8.315,5.454-13.268.1-2.574-3.9-2.57-4,0Z"/><path class="e" d="M42.327,47.108a6.322,6.322,0,0,0-7.89-.411c-2.454,1.828-2.7,5.053-2.463,7.886.456,5.484,3.344,12.31,9.394,13.394a2.057,2.057,0,0,0,2.461-1.4,2.019,2.019,0,0,0-1.4-2.461c-3.9-.7-5.67-4.91-6.31-8.416a14.273,14.273,0,0,1-.2-2.785,5.5,5.5,0,0,1,.384-2.456,2.193,2.193,0,0,1,3.2-.526,2.057,2.057,0,0,0,2.829,0,2.018,2.018,0,0,0,0-2.829Z"/><path class="e" d="M40.144,62.637a33.4,33.4,0,0,0,7.121,15.99c4.012,4.75,9.324,8.171,15.577,8.846a2.012,2.012,0,0,0,2-2,2.045,2.045,0,0,0-2-2c-5.3-.572-9.723-3.983-13.011-7.989-3.25-3.96-4.959-8.923-5.83-13.91a2.016,2.016,0,0,0-2.46-1.4,2.044,2.044,0,0,0-1.4,2.46Z"/><path class="e" d="M35.78,98.908a9.254,9.254,0,0,1-6.039-8.94,60.711,60.711,0,0,1,1.8-12.635c2.376-9.67,2.357-20.031,2.275-29.924-.073-8.674,1.048-17.76,4.937-25.621a29.743,29.743,0,0,1,5.774-8.174,33.473,33.473,0,0,1,9.2-6.082,38.137,38.137,0,0,1,29.093-1.4,2.015,2.015,0,0,0,2.46-1.4,2.045,2.045,0,0,0-1.4-2.46A37.715,37.715,0,0,0,71.657.029,41.916,41.916,0,0,0,55.606,2.447C47.884,5.29,41.053,9.991,36.758,17.111,32.013,24.975,30.232,34.4,29.88,43.465c-.222,5.7.021,11.407-.271,17.113a88.607,88.607,0,0,1-1.74,14.93c-1.126,5-2.292,10.232-2.138,15.4.163,5.475,4,9.974,8.985,11.859a2.016,2.016,0,0,0,2.46-1.4,2.044,2.044,0,0,0-1.4-2.46Z"/><path class="e" d="M64.658,28.527c-5.614,8.57-15.3,14.037-24.262,17.8a2.065,2.065,0,0,0-1.4,2.46,2.013,2.013,0,0,0,2.46,1.4c10.253-4.3,20.412-10.111,26.653-19.638,1.415-2.16-2.047-4.166-3.454-2.019Z"/><path class="e" d="M57.381,41.056a43.881,43.881,0,0,0,14.99-4.846c4.387-2.282,8.84-5.153,12.068-8.955C86.1,25.3,83.28,22.46,81.611,24.426a36.38,36.38,0,0,1-10.886,8.135,38.86,38.86,0,0,1-13.344,4.495,2.063,2.063,0,0,0-2,2,2.012,2.012,0,0,0,2,2Z"/><path class="e" d="M99.412,46.8c-4.131-2.1-7.108-5.743-9.581-9.575a32.564,32.564,0,0,1-4.659-11.387c-.508-2.521-4.364-1.454-3.857,1.063A35.94,35.94,0,0,0,86.6,39.58c2.791,4.253,6.188,8.322,10.794,10.67,2.289,1.166,4.316-2.284,2.019-3.454Z"/><path class="e" d="M89.3,9.034a26.829,26.829,0,0,1,7.167,6.5,32.816,32.816,0,0,1,5.225,9.38A40.527,40.527,0,0,1,104.2,35.681c.283,3.4.268,6.841.261,10.251a128.509,128.509,0,0,0,1.63,22.7c.8,4.555,2.229,8.85,3.428,13.3.935,3.466,1.822,7.776.095,11.134a8.96,8.96,0,0,1-7.924,5.139c-2.574-.01-2.578,3.99,0,4a12.517,12.517,0,0,0,9.531-4.425A13.63,13.63,0,0,0,114.5,87.99c-.271-5.779-2.557-11.094-3.809-16.681a97.439,97.439,0,0,1-2.266-22.067c.072-7.841.248-15.723-2.152-23.283a39.782,39.782,0,0,0-5.99-11.99,47.952,47.952,0,0,0-4.339-4.752A20.5,20.5,0,0,0,91.317,5.58c-2.253-1.249-4.273,2.2-2.019,3.454Z"/><path class="e" d="M99.817,49.937a2.209,2.209,0,0,1,3.125.412,4.723,4.723,0,0,1,.452,2.4,14.36,14.36,0,0,1-.2,2.951c-.64,3.507-2.41,7.718-6.309,8.417a2.017,2.017,0,0,0-1.4,2.46,2.043,2.043,0,0,0,2.46,1.4c6.05-1.084,8.938-7.91,9.394-13.394.235-2.838-.011-6.051-2.463-7.886a6.318,6.318,0,0,0-7.889.411,2.016,2.016,0,0,0,0,2.829,2.043,2.043,0,0,0,2.828,0Z"/><path class="e" d="M64.139,72.137a12.07,12.07,0,0,0,5.817,1.357,9.584,9.584,0,0,0,5.981-1.811,2,2,0,0,0,0-2.829,2.062,2.062,0,0,0-2.828,0c.691-.538-.025-.012-.243.1-.169.088-.622.229.009.015-.159.054-.313.121-.472.172-.425.136-.91.15-1.321.3.211-.077.323-.039.024-.009-.13.013-.259.024-.389.032-.313.02-.626.028-.939.026-.28,0-.561-.011-.84-.03-.129-.009-.257-.019-.385-.032-.074-.007-.147-.015-.22-.024q-.234-.029.183.024c-.046.05-.553-.1-.632-.118-.2-.045-.4-.1-.6-.156-.173-.051-.342-.113-.512-.172-.449-.153.421.2.014.01-.212-.1-.42-.2-.627-.313a2,2,0,0,0-2.019,3.454Z"/><path class="e" d="M68.683,58.766a26.239,26.239,0,0,1,.611,2.8l-.072-.532a1.663,1.663,0,0,1,.011.386l.071-.531a.929.929,0,0,1-.042.173l.2-.478a.608.608,0,0,1-.061.112l.313-.405a.6.6,0,0,1-.091.09l.4-.313a1.672,1.672,0,0,1-.221.118l.478-.2a1.621,1.621,0,0,1-.374.109l.532-.072a1.464,1.464,0,0,1-.35,0l.532.071c-.133-.018-.262-.05-.394-.068a1.526,1.526,0,0,0-.8-.036,1.477,1.477,0,0,0-.743.238,2,2,0,0,0-.718,2.736,1.916,1.916,0,0,0,1.2.919c.351.047.692.135,1.049.151a3.456,3.456,0,0,0,1.61-.392,2.448,2.448,0,0,0,1.319-1.6,3.771,3.771,0,0,0-.013-1.658c-.152-.9-.361-1.794-.592-2.677a2,2,0,0,0-2.46-1.4,2.03,2.03,0,0,0-1.2.919,2.1,2.1,0,0,0-.2,1.541Z"/><path class="e" d="M54.447,50.7c-.467,1.517-.162,5.007,2.712,5.3,3.8-.023,4-4.242,2.722-6.226C58.834,48.152,55.755,47.477,54.447,50.7Z"/><path class="e" d="M84.868,50.7c.467,1.517.163,5.007-2.711,5.3-3.8-.023-4-4.242-2.723-6.226C80.481,48.152,83.56,47.477,84.868,50.7Z"/></svg>